<svg xmlns="http://www.w3.org/2000/svg" viewBox="0 0 64 64" width="64" height="64">
  <path d="M24 6 C24 6, 24 14, 32 18 C40 22, 40 30, 40 30" fill="none" stroke="white" stroke-width="3" stroke-linecap="round"/>
  <path d="M40 6 C40 6, 40 14, 32 18 C24 22, 24 30, 24 30" fill="none" stroke="white" stroke-width="3" stroke-linecap="round"/>
  <path d="M24 30 C24 30, 24 38, 32 42 C40 46, 40 54, 40 58" fill="none" stroke="white" stroke-width="3" stroke-linecap="round"/>
  <path d="M40 30 C40 30, 40 38, 32 42 C24 46, 24 54, 24 58" fill="none" stroke="white" stroke-width="3" stroke-linecap="round"/>
  <circle cx="22" cy="12" r="3" fill="white"/>
  <circle cx="42" cy="12" r="3" fill="white"/>
  <circle cx="22" cy="36" r="3" fill="white"/>
  <circle cx="42" cy="36" r="3" fill="white"/>
</svg>